
<svg xmlns="http://www.w3.org/2000/svg" xmlns:xlink="http://www.w3.org/1999/xlink" data-name="Слой 2" preserveAspectRatio="xMidYMid meet" version="1.0" viewBox="0.0 -1.4 1153.0 1156.7" zoomAndPan="magnify" style="fill: rgb(0, 0, 0);" original_string_length="4071"><g data-name="Слой 1"><g style="fill: rgb(0, 0, 0);"><g id="__id136_slyagv63rb"><path d="M1065.44,1155.31H87.52c-48.26,0-87.52-39.34-87.52-87.7V520.22c0-41.09,20.94-78.36,56.01-99.72,5.21-3.19,12-1.54,15.18,3.69,3.17,5.21,1.52,12.01-3.69,15.18-28.44,17.31-45.41,47.54-45.41,80.85v547.4c0,36.18,29.35,65.6,65.43,65.6h977.92c36.07,0,65.43-29.43,65.43-65.6V520.22c0-31.6-15.65-60.98-41.88-78.6-5.06-3.4-6.41-10.26-3.01-15.33,3.41-5.05,10.27-6.43,15.33-3.01,32.34,21.73,51.65,57.97,51.65,96.93v547.4c0,48.35-39.25,87.7-87.52,87.7Z" style="fill: inherit;"/><path d="M576.47,863.74c-2.38,0-4.78-.77-6.8-2.35L42.03,448.05c-4.8-3.76-5.65-10.71-1.88-15.51,3.77-4.81,10.72-5.64,15.51-1.88l527.64,413.33c4.81,3.76,5.65,10.71,1.89,15.51-2.18,2.78-5.43,4.23-8.71,4.23Z" style="fill: inherit;"/><path d="M576.5,863.74c-3.28,0-6.53-1.46-8.71-4.23-3.76-4.81-2.92-11.75,1.89-15.51l527.95-413.35c4.79-3.77,11.75-2.9,15.5,1.89,3.76,4.81,2.92,11.75-1.89,15.51l-527.95,413.35c-2.02,1.58-4.42,2.35-6.8,2.35Z" style="fill: inherit;"/><path d="M433.26,138.36c-3.22,0-6.41-1.4-8.59-4.08-3.84-4.74-3.12-11.69,1.62-15.54L569.53,2.47c4.72-3.85,11.69-3.11,15.53,1.61,3.84,4.74,3.12,11.69-1.62,15.54l-143.23,116.26c-2.04,1.66-4.51,2.47-6.95,2.47Z" style="fill: inherit;"/><path d="M48.85,450.4c-3.21,0-6.4-1.4-8.58-4.08-3.85-4.74-3.12-11.69,1.61-15.54l135.92-110.33c4.75-3.84,11.69-3.11,15.54,1.61,3.84,4.74,3.12,11.69-1.62,15.54L55.8,447.93c-2.05,1.66-4.51,2.47-6.96,2.47Z" style="fill: inherit;"/><path d="M716.15,135.4c-2.44,0-4.9-.81-6.95-2.47L569.53,19.63c-4.74-3.84-5.47-10.8-1.62-15.53,3.83-4.74,10.78-5.47,15.53-1.62l139.67,113.31c4.74,3.84,5.47,10.8,1.62,15.53-2.18,2.69-5.37,4.09-8.59,4.09Z" style="fill: inherit;"/><path d="M1104.43,450.39c-2.44,0-4.9-.81-6.95-2.47l-134.39-109.02c-4.74-3.84-5.47-10.8-1.62-15.53,3.83-4.74,10.78-5.46,15.53-1.62l134.39,109.02c4.74,3.84,5.47,10.8,1.62,15.53-2.18,2.69-5.37,4.09-8.59,4.09Z" style="fill: inherit;"/><path d="M1109.09,1134.14c-2.37,0-4.78-.77-6.8-2.35l-439.04-343.64c-4.8-3.76-5.65-10.71-1.89-15.51,3.75-4.81,10.69-5.66,15.5-1.89l439.04,343.64c4.8,3.76,5.65,10.71,1.89,15.51-2.18,2.78-5.43,4.24-8.71,4.24Z" style="fill: inherit;"/><path d="M43.87,1134.14c-3.28,0-6.53-1.46-8.71-4.24-3.76-4.8-2.91-11.75,1.89-15.51l439.05-343.64c4.79-3.77,11.75-2.91,15.5,1.89,3.76,4.8,2.91,11.75-1.89,15.51L50.67,1131.79c-2.02,1.58-4.42,2.35-6.8,2.35Z" style="fill: inherit;"/></g><g id="__id137_slyagv63rb"><path d="M576.47,613.69c-2.27,0-4.56-.7-6.53-2.14-14.23-10.45-27.15-19.83-38.97-28.41-66.6-48.33-100.03-72.59-132.74-119.41-25.25-36.18-29.22-83.13-10.6-125.58,17.22-39.26,50.8-66.75,87.65-71.74,77.87-10.58,110.87,56.98,111.2,57.66,2.6,5.52,.25,12.1-5.26,14.71-5.54,2.64-12.08,.25-14.69-5.23-1.13-2.32-26.71-53.58-88.27-45.25-29.27,3.96-56.23,26.47-70.38,58.73-15.5,35.34-12.33,74.24,8.49,104.06,30.57,43.77,60.97,65.84,127.59,114.18,11.85,8.6,24.81,18.01,39.07,28.48,4.92,3.61,5.98,10.53,2.36,15.44-2.16,2.95-5.51,4.51-8.91,4.51Z" style="fill: inherit;"/><path d="M576.5,613.69c-3.4,0-6.75-1.56-8.91-4.51-3.61-4.91-2.56-11.83,2.36-15.44,14.28-10.49,27.26-19.91,39.13-28.52,66.59-48.33,96.98-70.38,127.53-114.14,20.82-29.82,23.99-68.72,8.49-104.07-14.14-32.25-41.1-54.75-70.36-58.71-61.78-8.31-87.22,43.06-88.28,45.25-2.63,5.49-9.23,7.8-14.71,5.19-5.49-2.62-7.84-9.17-5.24-14.67,.32-.68,33.18-68.25,111.21-57.66,36.83,4.99,70.41,32.47,87.63,71.73,18.62,42.46,14.65,89.41-10.6,125.59-32.69,46.81-66.1,71.06-132.67,119.38-11.84,8.59-24.78,17.99-39.03,28.45-1.96,1.44-4.26,2.14-6.53,2.14Z" style="fill: inherit;"/></g><g id="__id138_slyagv63rb"><path d="M968.2,552.42c-6.11,0-11.05-4.95-11.05-11.05V138.36H195.81v403.01c0,6.1-4.95,11.05-11.05,11.05s-11.05-4.95-11.05-11.05V127.31c0-6.1,4.95-11.05,11.05-11.05H968.2c6.11,0,11.05,4.95,11.05,11.05v414.05c0,6.1-4.94,11.05-11.05,11.05Z" style="fill: inherit;"/></g></g></g></svg>